<svg width="148" height="16" viewBox="0 0 148 16" fill="none" xmlns="http://www.w3.org/2000/svg">
<path d="M0.386 15V0.299999H3.158V12.48H9.878V15H0.386ZM11.8518 15V4.584H14.4978V15H11.8518ZM13.1748 3.366C12.6988 3.366 12.2928 3.212 11.9568 2.904C11.6348 2.596 11.4738 2.19 11.4738 1.686C11.4738 1.182 11.6348 0.776 11.9568 0.467999C12.2928 0.159999 12.6988 0.00599903 13.1748 0.00599903C13.6648 0.00599903 14.0708 0.159999 14.3928 0.467999C14.7148 0.776 14.8758 1.182 14.8758 1.686C14.8758 2.19 14.7148 2.596 14.3928 2.904C14.0708 3.212 13.6648 3.366 13.1748 3.366ZM17.43 15V4.584H20.034V5.949H20.412C20.58 5.585 20.895 5.242 21.357 4.92C21.819 4.584 22.519 4.416 23.457 4.416C24.269 4.416 24.976 4.605 25.578 4.983C26.194 5.347 26.67 5.858 27.006 6.516C27.342 7.16 27.51 7.916 27.51 8.784V15H24.864V8.994C24.864 8.21 24.668 7.622 24.276 7.23C23.898 6.838 23.352 6.642 22.638 6.642C21.826 6.642 21.196 6.915 20.748 7.461C20.3 7.993 20.076 8.742 20.076 9.708V15H17.43ZM33.6044 15.294C32.8624 15.294 32.1974 15.168 31.6094 14.916C31.0214 14.65 30.5524 14.272 30.2024 13.782C29.8664 13.278 29.6984 12.669 29.6984 11.955C29.6984 11.241 29.8664 10.646 30.2024 10.17C30.5524 9.68 31.0284 9.316 31.6304 9.078C32.2464 8.826 32.9464 8.7 33.7304 8.7H36.5864V8.112C36.5864 7.622 36.4324 7.223 36.1244 6.915C35.8164 6.593 35.3264 6.432 34.6544 6.432C33.9964 6.432 33.5064 6.586 33.1844 6.894C32.8624 7.188 32.6524 7.573 32.5544 8.049L30.1184 7.23C30.2864 6.698 30.5524 6.215 30.9164 5.781C31.2944 5.333 31.7914 4.976 32.4074 4.71C33.0374 4.43 33.8004 4.29 34.6964 4.29C36.0684 4.29 37.1534 4.633 37.9514 5.319C38.7494 6.005 39.1484 6.999 39.1484 8.301V12.186C39.1484 12.606 39.3444 12.816 39.7364 12.816H40.5764V15H38.8124C38.2944 15 37.8674 14.874 37.5314 14.622C37.1954 14.37 37.0274 14.034 37.0274 13.614V13.593H36.6284C36.5724 13.761 36.4464 13.985 36.2504 14.265C36.0544 14.531 35.7464 14.769 35.3264 14.979C34.9064 15.189 34.3324 15.294 33.6044 15.294ZM34.0664 13.152C34.8084 13.152 35.4104 12.949 35.8724 12.543C36.3484 12.123 36.5864 11.57 36.5864 10.884V10.674H33.9194C33.4294 10.674 33.0444 10.779 32.7644 10.989C32.4844 11.199 32.3444 11.493 32.3444 11.871C32.3444 12.249 32.4914 12.557 32.7854 12.795C33.0794 13.033 33.5064 13.152 34.0664 13.152ZM46.755 15.294C45.397 15.294 44.284 15 43.416 14.412C42.548 13.824 42.023 12.984 41.841 11.892L44.277 11.262C44.375 11.752 44.536 12.137 44.76 12.417C44.998 12.697 45.285 12.9 45.621 13.026C45.971 13.138 46.349 13.194 46.755 13.194C47.371 13.194 47.826 13.089 48.12 12.879C48.414 12.655 48.561 12.382 48.561 12.06C48.561 11.738 48.421 11.493 48.141 11.325C47.861 11.143 47.413 10.996 46.797 10.884L46.209 10.779C45.481 10.639 44.816 10.45 44.214 10.212C43.612 9.96 43.129 9.617 42.765 9.183C42.401 8.749 42.219 8.189 42.219 7.503C42.219 6.467 42.597 5.676 43.353 5.13C44.109 4.57 45.103 4.29 46.335 4.29C47.497 4.29 48.463 4.549 49.233 5.067C50.003 5.585 50.507 6.264 50.745 7.104L48.288 7.86C48.176 7.328 47.945 6.95 47.595 6.726C47.259 6.502 46.839 6.39 46.335 6.39C45.831 6.39 45.446 6.481 45.18 6.663C44.914 6.831 44.781 7.069 44.781 7.377C44.781 7.713 44.921 7.965 45.201 8.133C45.481 8.287 45.859 8.406 46.335 8.49L46.923 8.595C47.707 8.735 48.414 8.924 49.044 9.162C49.688 9.386 50.192 9.715 50.556 10.149C50.934 10.569 51.123 11.143 51.123 11.871C51.123 12.963 50.724 13.81 49.926 14.412C49.142 15 48.085 15.294 46.755 15.294ZM61.456 15V2.82H57.172V0.299999H68.512V2.82H64.228V15H61.456ZM70.4837 15V0.299999H73.1297V5.865H73.5077C73.6197 5.641 73.7947 5.417 74.0327 5.193C74.2707 4.969 74.5857 4.787 74.9777 4.647C75.3837 4.493 75.8947 4.416 76.5107 4.416C77.3227 4.416 78.0297 4.605 78.6317 4.983C79.2477 5.347 79.7237 5.858 80.0597 6.516C80.3957 7.16 80.5637 7.916 80.5637 8.784V15H77.9177V8.994C77.9177 8.21 77.7217 7.622 77.3297 7.23C76.9517 6.838 76.4057 6.642 75.6917 6.642C74.8797 6.642 74.2497 6.915 73.8017 7.461C73.3537 7.993 73.1297 8.742 73.1297 9.708V15H70.4837ZM88.3801 15.294C87.3441 15.294 86.4131 15.084 85.5871 14.664C84.7611 14.244 84.1101 13.635 83.6341 12.837C83.1581 12.039 82.9201 11.08 82.9201 9.96V9.624C82.9201 8.504 83.1581 7.545 83.6341 6.747C84.1101 5.949 84.7611 5.34 85.5871 4.92C86.4131 4.5 87.3441 4.29 88.3801 4.29C89.4161 4.29 90.3471 4.5 91.1731 4.92C91.9991 5.34 92.6501 5.949 93.1261 6.747C93.6021 7.545 93.8401 8.504 93.8401 9.624V9.96C93.8401 11.08 93.6021 12.039 93.1261 12.837C92.6501 13.635 91.9991 14.244 91.1731 14.664C90.3471 15.084 89.4161 15.294 88.3801 15.294ZM88.3801 12.942C89.1921 12.942 89.8641 12.683 90.3961 12.165C90.9281 11.633 91.1941 10.877 91.1941 9.897V9.687C91.1941 8.707 90.9281 7.958 90.3961 7.44C89.8781 6.908 89.2061 6.642 88.3801 6.642C87.5681 6.642 86.8961 6.908 86.3641 7.44C85.8321 7.958 85.5661 8.707 85.5661 9.687V9.897C85.5661 10.877 85.8321 11.633 86.3641 12.165C86.8961 12.683 87.5681 12.942 88.3801 12.942ZM101.029 15.294C99.9925 15.294 99.0755 15.077 98.2775 14.643C97.4935 14.195 96.8775 13.572 96.4295 12.774C95.9955 11.962 95.7785 11.01 95.7785 9.918V9.666C95.7785 8.574 95.9955 7.629 96.4295 6.831C96.8635 6.019 97.4725 5.396 98.2565 4.962C99.0405 4.514 99.9505 4.29 100.986 4.29C102.009 4.29 102.898 4.521 103.654 4.983C104.41 5.431 104.998 6.061 105.417 6.873C105.838 7.671 106.048 8.602 106.048 9.666V10.569H98.4665C98.4945 11.283 98.7605 11.864 99.2645 12.312C99.7685 12.76 100.385 12.984 101.113 12.984C101.855 12.984 102.401 12.823 102.751 12.501C103.101 12.179 103.367 11.822 103.549 11.43L105.712 12.564C105.516 12.928 105.229 13.327 104.851 13.761C104.487 14.181 103.997 14.545 103.381 14.853C102.765 15.147 101.981 15.294 101.029 15.294ZM98.4875 8.595H103.36C103.304 7.993 103.059 7.51 102.625 7.146C102.205 6.782 101.652 6.6 100.966 6.6C100.252 6.6 99.6845 6.782 99.2645 7.146C98.8445 7.51 98.5855 7.993 98.4875 8.595ZM108.403 15V4.584H111.007V5.718H111.385C111.567 5.368 111.868 5.067 112.288 4.815C112.708 4.549 113.261 4.416 113.947 4.416C114.689 4.416 115.284 4.563 115.732 4.857C116.18 5.137 116.523 5.508 116.761 5.97H117.139C117.377 5.522 117.713 5.151 118.147 4.857C118.581 4.563 119.197 4.416 119.995 4.416C120.639 4.416 121.22 4.556 121.738 4.836C122.27 5.102 122.69 5.515 122.998 6.075C123.32 6.621 123.481 7.314 123.481 8.154V15H120.835V8.343C120.835 7.769 120.688 7.342 120.394 7.062C120.1 6.768 119.687 6.621 119.155 6.621C118.553 6.621 118.084 6.817 117.748 7.209C117.426 7.587 117.265 8.133 117.265 8.847V15H114.619V8.343C114.619 7.769 114.472 7.342 114.178 7.062C113.884 6.768 113.471 6.621 112.939 6.621C112.337 6.621 111.868 6.817 111.532 7.209C111.21 7.587 111.049 8.133 111.049 8.847V15H108.403ZM126.326 15V0.299999H128.972V8.427H129.35L132.794 4.584H136.238L131.429 9.624L136.406 15H133.004L129.35 10.863H128.972V15H126.326ZM142.29 15.294C141.254 15.294 140.337 15.077 139.539 14.643C138.755 14.195 138.139 13.572 137.691 12.774C137.257 11.962 137.04 11.01 137.04 9.918V9.666C137.04 8.574 137.257 7.629 137.691 6.831C138.125 6.019 138.734 5.396 139.518 4.962C140.302 4.514 141.212 4.29 142.248 4.29C143.27 4.29 144.159 4.521 144.915 4.983C145.671 5.431 146.259 6.061 146.679 6.873C147.099 7.671 147.309 8.602 147.309 9.666V10.569H139.728C139.756 11.283 140.022 11.864 140.526 12.312C141.03 12.76 141.646 12.984 142.374 12.984C143.116 12.984 143.662 12.823 144.012 12.501C144.362 12.179 144.628 11.822 144.81 11.43L146.973 12.564C146.777 12.928 146.49 13.327 146.112 13.761C145.748 14.181 145.258 14.545 144.642 14.853C144.026 15.147 143.242 15.294 142.29 15.294ZM139.749 8.595H144.621C144.565 7.993 144.32 7.51 143.886 7.146C143.466 6.782 142.913 6.6 142.227 6.6C141.513 6.6 140.946 6.782 140.526 7.146C140.106 7.51 139.847 7.993 139.749 8.595Z" fill="white"/>
</svg>
